<svg width="30" height="31" viewBox="0 0 30 31" xmlns="http://www.w3.org/2000/svg">
  <style>
    path { fill: #595855; stroke: #595855; }
    @media (prefers-color-scheme: dark) {
      path { fill: #C4C3B6; stroke: #C4C3B6; }
    }
  </style>
  <path d="M14.8796 1.18042C19.0513 1.18052 22.4778 2.64436 24.8611 5.15991C27.244 7.67513 28.5798 11.2368 28.5798 15.4255C28.5798 19.5914 27.2176 23.1909 24.822 25.7488C22.4261 28.3068 19.0001 29.82 14.8796 29.8201C10.7594 29.8201 7.33298 28.3104 4.93726 25.7585C2.54194 23.2071 1.18042 19.6171 1.18042 15.4617C1.18049 11.2624 2.50116 7.69136 4.87671 5.16968C7.25272 2.64753 10.6795 1.18042 14.8796 1.18042ZM14.8894 2.11694C11.7445 2.11694 9.18683 3.35239 7.41382 5.61987C5.63949 7.88911 4.64626 11.1979 4.64624 15.3513C4.64624 19.4709 5.61368 22.8546 7.37573 25.2068C9.13637 27.557 11.6941 28.8816 14.8894 28.8816C17.9713 28.8815 20.5365 27.5988 22.3328 25.283C24.1301 22.9656 25.1609 19.6097 25.1609 15.4617C25.1608 11.3994 24.1796 8.06269 22.407 5.74292C20.6356 3.42486 18.0704 2.11703 14.8894 2.11694Z" stroke-width="0.12"/>
  <path d="M15 6.5 L10.0 24.0 L6.5 24.0 Z"/>
  <path d="M15 6.5 L23.5 24.0 L20.0 24.0 Z"/>
  <path d="M12.0 17.0 L18.0 17.0 L18.43 18.5 L11.57 18.5 Z"/>
</svg>
